<?xml version="1.0" encoding="utf-8"?>
<!-- Generator: Adobe Illustrator 17.0.0, SVG Export Plug-In . SVG Version: 6.00 Build 0)  -->
<!DOCTYPE svg PUBLIC "-//W3C//DTD SVG 1.1//EN" "http://www.w3.org/Graphics/SVG/1.1/DTD/svg11.dtd">
<svg version="1.1" id="Layer_1" xmlns="http://www.w3.org/2000/svg" xmlns:xlink="http://www.w3.org/1999/xlink" x="0px" y="0px"
	 width="600px" height="200px" viewBox="0 0 600 200" style="enable-background:new 0 0 600 200;" xml:space="preserve">
<style type="text/css">
	.st0{fill-rule:evenodd;clip-rule:evenodd;}
</style>
<g>
	<rect x="77.64" y="2.5" class="st0" width="9.45" height="29.74"/>
	<path class="st0" d="M77.64,134.98v19.16v1.25h0.06c0,9.62-7.8,17.41-17.42,17.41s-17.41-7.8-17.41-17.41h-9.39
		c0,14.8,12,26.8,26.8,26.8s26.8-12,26.8-26.8v-37.67h-9.45V134.98z"/>
	<path class="st0" d="M93.84,42.54c-0.77,1.55-1.49,3.14-2.16,4.75l2.16,13.04V42.54z"/>
	<path class="st0" d="M162.5,9.18c20.51,0,38.88,9.16,51.25,23.6c4.83,0.32,9.39,1.3,13.48,2.82C213.63,14.21,189.73,0,162.5,0
		c-25.79,0-48.58,12.74-62.47,32.25h11.69C124.07,18.12,142.23,9.18,162.5,9.18z"/>
	<path class="st0" d="M239.08,103.65v44.39v5.13h9.53v-1.6h0v-39.43C245.04,109.72,241.83,106.86,239.08,103.65z"/>
	<path class="st0" d="M366.92,134.45l-42.58-44.78c-0.4,3.37-1.63,6.5-3.51,9.16l58.21,59.99v-7.31v-0.5v-5.63v-26.44h-12.12V134.45
		z"/>
	<path class="st0" d="M243.89,42.56c1.5-1.3,3.08-2.51,4.72-3.62V24.42l9.37,9.66c2.25-0.91,4.56-1.65,6.92-2.21
		c1.28-0.31,2.53-0.55,3.76-0.75L239.08,0v7.31h0v0.5v39.62C240.57,45.69,242.17,44.06,243.89,42.56z"/>
	<path class="st0" d="M278.43,55.15l20.14,20.75v-4.86v-5.89v-2.58l-6.55-6.89c-2.93-0.52-5.91-0.73-8.88-0.73
		C281.52,54.94,279.94,55.02,278.43,55.15z"/>
	<polygon class="st0" points="379.04,10.79 379.04,7.26 379.04,2.05 366.92,2.1 366.92,2.59 366.92,7.31 366.92,7.31 366.92,33.33 
		379.04,33.33 	"/>
	<path class="st0" d="M393.74,110.96c-1.69-1.04-3.12-1.96-3.41-2.19c-2.2-1.76-4.22-3.76-6.04-5.91v33.53v16.73h9.45h65.14v-8.79
		h-65.14V110.96z"/>
	<path class="st0" d="M393.74,39.07V10.82h65.14V2.03h-65.14h-8.24h-1.21V47.8c0.63-0.75,1.28-1.49,1.97-2.19
		C387.52,44.3,390.78,40.83,393.74,39.07z"/>
	<path class="st0" d="M469.25,36.77c0-0.08-0.01-0.16-0.01-0.24c0-14.96,17.62-26.07,34.9-26.07c11.11,0,20.84,5.02,26.39,12.57
		h11.02c-6.42-12.36-20.74-20.98-37.41-20.98c-22.65,0-44.63,14.87-44.63,34.48c0,6.34,2.67,12.49,6.85,17.87L469.25,36.77z"/>
	<path class="st0" d="M162.5,143.98c-21.75,0-41.09-10.3-53.42-26.27H97.86c13.61,21.31,37.46,35.45,64.63,35.45
		c25.54,0,48.14-12.49,62.07-31.68l-5.39-8.37C207.17,131.69,186.27,143.98,162.5,143.98z"/>
	<path class="st0" d="M401.28,75.23c0,1.32,0.13,2.64,0.37,3.95h39.86V70.4h-39.68C401.47,71.98,401.28,73.61,401.28,75.23z"/>
	<path class="st0" d="M500.94,144.18c-16.22,0-30.02-8.81-35.47-21.18h-10.21c5.83,17.07,24.06,29.54,45.68,29.54
		c23.81,0,43.53-15.11,47.09-34.85h-9.83C534.75,132.79,519.39,144.18,500.94,144.18z"/>
	<path class="st0" d="M599.96,52.21c-0.17-5.34,0.35-11.38-0.27-16.28h-42.96v45.9c0,0.62,0.01,1.25-0.03,1.88l-2.45,0l-0.6-3.94
		l-0.01,0c-1.58-14.67-4.67-29.16-6.25-43.83h-19.21c-6.04,13.62-11.79,27.53-18.15,40.83c-5.4-13.81-11.22-27.21-16.81-40.83
		h-20.55c-1.62,10.21-3.14,20.52-5.07,30.42c-2.81-10.07-8.29-17.85-16.28-23.75c-7.74-5.71-18.3-10.15-30.96-9.34
		c-20.58,1.32-32.59,12.85-40.3,26.69V36.74h-14.41v51.5c-14.47-17.02-28.02-34.96-42.7-51.77h-21.08v24.82
		c0,8.62,1.13,17.26-0.8,23.48c-2.44,7.88-12.4,13.96-23.48,13.88c-15.12-0.11-26.62-11.05-25.08-25.88
		c1.61-15.55,17.46-22.45,35.49-20.81c-4.7-5.89-11.22-12.27-17.08-17.88c-14.14,2.25-24.99,9-31.76,18.15
		c-0.94,1.27-1.35,3.09-2.94,3.74c-0.11-5.16-1.69-9.25-4.54-12.54c-7.28-8.43-21.2-7.47-37.36-7.47c-32.06,0-68-0.21-96.87,0.27
		c-0.48,14.28-0.27,31.27-0.27,46.17c0,0.67,0.11,1.96,0.03,3.15l-2.84,0l-0.35-2.35c-0.01-0.11-0.02-0.2-0.03-0.27
		c-2.56-16.07-5.05-31.68-7.47-46.97H67.31c-6.22,14.15-12.09,28.65-18.41,42.7c-5.65-14.19-11.15-28.52-16.81-42.7H12.87
		C8.81,62.3,4.18,88.09,0.07,114.39h18.68c2.53-15.97,4.95-32.05,8-47.5c5.96,16.02,12.54,31.4,18.41,47.5h7.47
		c6.39-15.76,12.83-31.47,19.75-46.7c1.91,15.79,4.45,30.96,6.4,46.7h60.58V99.18h-24.82V83.44h23.75V67.43
		c-7.83-0.18-16.37,0.36-23.75-0.27V52.48h37.36v62.18h18.68c0.18-20.64-0.36-41.99,0.27-62.18h12.54
		c0.18,20.64-0.36,41.98,0.27,62.18c6.14-0.17,12.98,0.35,18.68-0.27V80.77c8.07,12.03,15.45,24.75,23.75,36.56
		c3.77-5.39,6.37-11.96,8.81-18.68c-3.4-6.12-9.17-11.28-12.01-17.08c3.47-0.46,6.2-3.03,8.81-3.47
		c1.19,30.34,39.79,49.25,69.65,33.62c7.87-4.12,16.43-10.87,18.95-19.48c0.7-2.39,0.99-4.95,1.07-7.63v-0.09
		c0.03-1.16,0.03-2.34,0-3.54V62.41c12.28,14.76,25.86,31.51,38.42,46.91c1.6,1.96,4.42,5.67,5.82,6.38h8.6
		c2.81-0.09,3.11-0.01,5.75,0h0.11v-25.6c6.54,12.67,16.96,22.71,32.82,25.89c17.72,3.55,34.58-2.79,44.03-12.81
		c2.03-2.15,3.78-5.29,5.87-6.94c-0.92,6.1-2.02,12.03-2.94,18.15h20.01c2.6-15.9,4.91-32.1,8.01-47.5
		c5.97,16,12.41,31.53,18.41,47.5h7.2c6.59-15.56,12.88-31.42,19.75-46.7c2.03,15.67,4.49,30.91,6.4,46.7h60.31V99.18h-24.82
		c0.18-5.16-0.36-11.03,0.27-15.75h23.22V67.43h-23.48V52.48C583.32,52.31,592.22,52.84,599.96,52.21z M221.56,62.36
		c-0.98,7.43-10.33,9.56-19.21,9.87V50.88c-0.02-0.38-0.04-0.76,0.27-0.8C211.98,50.21,222.73,53.43,221.56,62.36z M424.9,98.38
		c-14.83,1.08-32.93-12.54-25.62-31.22c2.84-7.25,9.7-14.01,21.88-14.94c13.22-1.01,22.67,6.26,25.89,16.01
		C452.53,84.84,438.48,97.39,424.9,98.38z"/>
</g>
<g>
</g>
<g>
</g>
<g>
</g>
<g>
</g>
<g>
</g>
<g>
</g>
</svg>
